<?xml version="1.0" encoding="utf-8"?>
<svg version="1.0" width="300.000000pt" height="300.000000pt" viewBox="0 0 300.000000 300.000000" preserveAspectRatio="xMidYMid meet" xmlns="http://www.w3.org/2000/svg">
  <defs/>
  <g transform="translate(0.000000,300.000000) scale(0.050000,-0.050000)" fill="#000000" stroke="none">
    <path d="M860 5105 c-230 -115 -239 -639 -27 -1472 l71 -277 -45 -31 c-125&#10;-87 -355 -306 -432 -411 -192 -261 -145 -436 141 -526 l110 -35 -157 -96&#10;c-424 -261 -357 -363 285 -436 440 -50 709 -186 1291 -656 690 -556 1105 -555&#10;1801 3 625 502 869 617 1422 670 498 48 539 170 142 425 -146 93 -147 95 -90&#10;108 450 107 377 482 -177 905 -112 85 -111 76 -36 366 420 1622 14 1909 -1235&#10;873 l-139 -115 -109 50 c-411 188 -943 188 -1366 1 l-112 -49 -184 154 c-552&#10;464 -947 652 -1154 549z m512 -644 c365 -183 839 -693 1143 -1229 236 -417&#10;292 -472 487 -472 176 0 233 54 446 422 368 637 852 1155 1223 1310 263 109&#10;302 -174 107 -767 -48 -145 -39 -141 -156 -67 -408 259 -761 -3 -1192 -888&#10;-255 -525 -256 -675 -1 -711 258 -37 333 -122 347 -392 43 -819 -1486 -913&#10;-1570 -97 -30 290 83 445 356 489 264 42 256 200 -39 786 -410 812 -748 1056&#10;-1136 822 -131 -78 -128 -79 -184 93 -200 627 -144 858 169 701z m813 -1736&#10;c81 -92 57 -399 -35 -441 -123 -56 -190 29 -190 240 0 214 119 320 225 201z&#10;m1806 -6 c90 -100 56 -395 -51 -439 -121 -50 -180 32 -180 249 0 212 121 311&#10;231 190z"/>
    <path d="M2770 1827 c-167 -45 -242 -137 -220 -267 13 -75 14 -76 89 -66 131&#10;18 192 -80 133 -215 -20 -46 107 -99 234 -99 121 0 256 66 217 105 -81 81 17&#10;232 135 208 143 -28 106 222 -44 301 -65 33 -454 57 -544 33z"/>
  </g>
</svg>