<?xml version="1.0" encoding="utf-8"?>
<svg version="1.0" width="300.000000pt" height="300.000000pt" viewBox="0 0 763.001 307.877" preserveAspectRatio="xMidYMid meet" xmlns="http://www.w3.org/2000/svg" xmlns:bx="https://boxy-svg.com">
  <defs>
    <style bx:fonts="Inter">@import url(https://fonts.googleapis.com/css2?family=Inter%3Aital%2Cwght%400%2C100..900&amp;display=swap);</style>
  </defs>
  <path style="stroke: rgb(0, 0, 0); fill: rgb(255, 255, 255);" d="M 44.391 85.919 C 44.391 81.17 42.243 77.291 42.243 71.957 C 42.243 70.523 41.825 67.363 42.601 66.587 C 44.923 64.266 52.783 59.864 58.353 62.649 C 59.385 63.165 61.875 62.233 62.649 63.007 C 65.716 66.074 72.045 65.601 75.537 69.093 C 82.664 76.22 94.388 80.426 101.313 87.351 C 104.888 90.926 110.868 90.462 114.2 93.795 C 115.537 95.131 116.802 92.458 118.138 93.795 C 122.693 98.349 124.036 106.852 128.878 111.695 C 131.018 113.834 130.923 118.394 132.816 120.286 C 134.158 121.628 134.062 124.396 135.322 125.656 C 138.176 128.511 139.929 133.485 143.198 136.754 C 144.735 138.291 144.408 141.186 146.062 142.84 C 146.596 143.374 150.358 150.358 150.358 150.358 C 150.358 150.358 151.401 148.241 151.432 148.21 C 153.401 146.241 154.117 143.019 156.086 141.05 C 159.149 137.988 160.311 132.529 163.604 129.236 C 168.605 124.235 174.17 118.127 177.566 111.337 C 178.765 108.938 181.119 106.352 182.936 104.535 C 186.92 100.55 188.751 94.066 192.243 90.573 C 197.571 85.245 203.227 79.589 208.711 74.105 C 211.6 71.216 217.054 69.7 219.809 66.945 C 220.885 65.869 223.176 66.442 224.105 65.513 C 226.834 62.784 239.652 62.803 242.363 65.513 C 243.749 66.899 245.244 67.679 246.659 69.093 C 248.468 70.902 248.28 75.011 250.239 76.969 C 251.913 78.643 250.437 83.969 252.029 85.561 C 252.719 86.251 252.029 91.278 252.029 92.363 C 252.029 97.805 252.745 102.984 252.745 108.831 C 252.745 109.744 253.326 113.977 252.745 114.558 C 251.721 115.583 251.69 118.119 250.597 119.212 C 248.91 120.899 246.523 122.57 244.869 124.224 C 242.289 126.804 235.276 124.509 232.697 127.088 C 231.563 128.222 227.387 126.313 226.253 127.446 C 225.06 128.64 220.286 126.253 219.093 127.446 C 218.028 128.511 214.548 127.337 213.365 128.52 C 211.344 130.541 206.989 129.527 204.773 131.742 C 201.636 134.879 199.114 138.476 195.823 141.766 C 195.54 142.049 194.816 147.561 195.465 148.21 C 198.305 151.05 203.583 153.464 206.563 156.444 C 210.383 160.264 207.066 168.189 209.785 173.628 C 210.857 175.771 210.501 180.755 210.501 182.936 C 210.501 183.448 210.828 185.831 210.501 186.158 C 208.652 188.007 205.191 188.246 203.341 190.095 C 202.906 190.531 199.73 190.095 199.045 190.095 C 196.79 190.095 192.403 190.294 191.169 191.527 C 190.334 192.363 191.169 198.449 191.169 199.761 C 191.169 206.686 194.033 213.689 194.033 221.241 C 194.033 222.497 194.832 228.318 194.033 229.117 C 189.635 233.515 189.888 240.065 186.158 243.795 C 180.604 249.349 170.109 247.881 162.53 251.671 C 158.551 253.66 153.979 255.609 148.926 255.609 C 148.013 255.609 143.779 256.19 143.198 255.609 C 140.13 252.54 133.163 253.449 129.952 250.239 C 129.475 249.761 127.924 250.358 127.446 249.881 C 125.895 248.329 122.912 248.21 121.36 246.659 C 117.47 242.768 112.394 240.198 108.473 236.277 C 107.041 234.845 108.115 230.907 106.683 229.475 C 104.722 227.514 103.819 219.497 103.819 215.871 C 103.819 214.673 103.056 209.116 103.819 208.353 C 104.726 207.446 106.476 201.496 105.251 199.045 C 104.018 196.58 98.542 196.991 97.017 195.465 C 94.507 192.956 92.849 189.15 90.215 186.516 C 88.962 185.263 89.678 182.041 88.425 180.788 C 87.966 180.329 88.727 178.527 88.425 177.924 C 87.718 176.51 87.477 169.564 88.425 168.616 C 90.332 166.709 89.657 161.656 91.647 159.666 C 92.748 158.565 93.048 156.474 94.153 155.37 C 97.438 152.085 103.605 143.128 100.597 137.112 C 99.635 135.19 97.558 135.506 96.301 134.248 C 92.833 130.78 85.111 128.878 78.759 128.878 C 76.85 128.878 72.554 128.043 70.883 128.878 C 69.47 129.585 65.077 131.703 63.007 130.668 C 59.151 128.74 56.797 125.174 54.057 122.434 C 52.86 121.238 53.234 118.389 51.909 117.064 C 49.253 114.408 52.178 107.31 49.761 104.893 C 45.29 100.421 44.033 85.792 44.033 77.327"/>
  <g transform="translate(0.000000,300.000000) scale(0.050000,-0.050000)" fill="#000000" stroke="none">
    <path d="M860 5105 c-230 -115 -239 -639 -27 -1472 l71 -277 -45 -31 c-125&#10;-87 -355 -306 -432 -411 -192 -261 -145 -436 141 -526 l110 -35 -157 -96&#10;c-424 -261 -357 -363 285 -436 440 -50 709 -186 1291 -656 690 -556 1105 -555&#10;1801 3 625 502 869 617 1422 670 498 48 539 170 142 425 -146 93 -147 95 -90&#10;108 450 107 377 482 -177 905 -112 85 -111 76 -36 366 420 1622 14 1909 -1235&#10;873 l-139 -115 -109 50 c-411 188 -943 188 -1366 1 l-112 -49 -184 154 c-552&#10;464 -947 652 -1154 549z m512 -644 c365 -183 839 -693 1143 -1229 236 -417&#10;292 -472 487 -472 176 0 233 54 446 422 368 637 852 1155 1223 1310 263 109&#10;302 -174 107 -767 -48 -145 -39 -141 -156 -67 -408 259 -761 -3 -1192 -888&#10;-255 -525 -256 -675 -1 -711 258 -37 333 -122 347 -392 43 -819 -1486 -913&#10;-1570 -97 -30 290 83 445 356 489 264 42 256 200 -39 786 -410 812 -748 1056&#10;-1136 822 -131 -78 -128 -79 -184 93 -200 627 -144 858 169 701z m813 -1736&#10;c81 -92 57 -399 -35 -441 -123 -56 -190 29 -190 240 0 214 119 320 225 201z&#10;m1806 -6 c90 -100 56 -395 -51 -439 -121 -50 -180 32 -180 249 0 212 121 311&#10;231 190z"/>
    <path d="M2770 1827 c-167 -45 -242 -137 -220 -267 13 -75 14 -76 89 -66 131&#10;18 192 -80 133 -215 -20 -46 107 -99 234 -99 121 0 256 66 217 105 -81 81 17&#10;232 135 208 143 -28 106 222 -44 301 -65 33 -454 57 -544 33z"/>
  </g>
  <text style="fill: rgb(255, 255, 255); font-family: Inter; font-size: 143.6px; font-weight: 500; white-space: pre;" x="307.884" y="195.886">tanuki</text>
</svg>